<mxfile host="app.diagrams.net" modified="2024-03-04T08:41:41.994Z" agent="Mozilla/5.0 (Windows NT 10.0; Win64; x64; rv:123.0) Gecko/20100101 Firefox/123.0" etag="jslUXtcj3RH71QWuD6Kq" version="24.0.1" type="device">
  <diagram name="Page-1" id="zlfIoXIstxNLt-yieD90">
    <mxGraphModel dx="2288" dy="657" grid="0" gridSize="10" guides="1" tooltips="1" connect="1" arrows="1" fold="1" page="0" pageScale="1" pageWidth="850" pageHeight="1100" math="0" shadow="0">
      <root>
        <mxCell id="0" />
        <mxCell id="1" parent="0" />
        <mxCell id="ff3Yo2wp49N8QEHePrqi-1" value="&lt;h1&gt;J&lt;/h1&gt;" style="ellipse;whiteSpace=wrap;html=1;aspect=fixed;" vertex="1" parent="1">
          <mxGeometry x="526" y="311" width="80" height="80" as="geometry" />
        </mxCell>
        <mxCell id="ff3Yo2wp49N8QEHePrqi-3" value="&lt;h1&gt;I&lt;/h1&gt;" style="ellipse;whiteSpace=wrap;html=1;aspect=fixed;" vertex="1" parent="1">
          <mxGeometry x="526" y="17" width="80" height="80" as="geometry" />
        </mxCell>
        <mxCell id="ff3Yo2wp49N8QEHePrqi-4" value="&lt;h1&gt;H&lt;/h1&gt;" style="ellipse;whiteSpace=wrap;html=1;aspect=fixed;" vertex="1" parent="1">
          <mxGeometry x="295" y="316" width="80" height="80" as="geometry" />
        </mxCell>
        <mxCell id="ff3Yo2wp49N8QEHePrqi-5" value="&lt;h1&gt;G&lt;/h1&gt;" style="ellipse;whiteSpace=wrap;html=1;aspect=fixed;" vertex="1" parent="1">
          <mxGeometry x="279" y="19" width="80" height="80" as="geometry" />
        </mxCell>
        <mxCell id="ff3Yo2wp49N8QEHePrqi-6" value="&lt;h1&gt;F&lt;/h1&gt;" style="ellipse;whiteSpace=wrap;html=1;aspect=fixed;" vertex="1" parent="1">
          <mxGeometry x="42" y="316" width="80" height="80" as="geometry" />
        </mxCell>
        <mxCell id="ff3Yo2wp49N8QEHePrqi-7" value="&lt;h1&gt;E&lt;/h1&gt;" style="ellipse;whiteSpace=wrap;html=1;aspect=fixed;" vertex="1" parent="1">
          <mxGeometry x="42" y="17" width="80" height="80" as="geometry" />
        </mxCell>
        <mxCell id="ff3Yo2wp49N8QEHePrqi-8" value="&lt;h1&gt;D&lt;/h1&gt;" style="ellipse;whiteSpace=wrap;html=1;aspect=fixed;" vertex="1" parent="1">
          <mxGeometry x="-195" y="319" width="80" height="80" as="geometry" />
        </mxCell>
        <mxCell id="ff3Yo2wp49N8QEHePrqi-9" value="&lt;h1&gt;C&lt;/h1&gt;" style="ellipse;whiteSpace=wrap;html=1;aspect=fixed;" vertex="1" parent="1">
          <mxGeometry x="-195" y="17" width="80" height="80" as="geometry" />
        </mxCell>
        <mxCell id="ff3Yo2wp49N8QEHePrqi-10" value="&lt;h1&gt;B&lt;/h1&gt;" style="ellipse;whiteSpace=wrap;html=1;aspect=fixed;" vertex="1" parent="1">
          <mxGeometry x="-397" y="159" width="80" height="80" as="geometry" />
        </mxCell>
        <mxCell id="ff3Yo2wp49N8QEHePrqi-11" value="&lt;h1&gt;A&lt;/h1&gt;" style="ellipse;whiteSpace=wrap;html=1;aspect=fixed;" vertex="1" parent="1">
          <mxGeometry x="-595" y="159" width="80" height="80" as="geometry" />
        </mxCell>
        <mxCell id="ff3Yo2wp49N8QEHePrqi-14" value="" style="endArrow=classic;html=1;rounded=0;fontSize=12;startSize=8;endSize=8;curved=1;exitX=1;exitY=0.5;exitDx=0;exitDy=0;entryX=0;entryY=0.5;entryDx=0;entryDy=0;" edge="1" parent="1" source="ff3Yo2wp49N8QEHePrqi-11" target="ff3Yo2wp49N8QEHePrqi-10">
          <mxGeometry width="50" height="50" relative="1" as="geometry">
            <mxPoint x="12" y="243" as="sourcePoint" />
            <mxPoint x="62" y="193" as="targetPoint" />
          </mxGeometry>
        </mxCell>
        <mxCell id="ff3Yo2wp49N8QEHePrqi-15" value="" style="endArrow=classic;html=1;rounded=0;fontSize=12;startSize=8;endSize=8;curved=1;exitX=1;exitY=0;exitDx=0;exitDy=0;entryX=0;entryY=1;entryDx=0;entryDy=0;" edge="1" parent="1" source="ff3Yo2wp49N8QEHePrqi-10" target="ff3Yo2wp49N8QEHePrqi-9">
          <mxGeometry width="50" height="50" relative="1" as="geometry">
            <mxPoint x="-338" y="217" as="sourcePoint" />
            <mxPoint x="-288" y="167" as="targetPoint" />
          </mxGeometry>
        </mxCell>
        <mxCell id="ff3Yo2wp49N8QEHePrqi-16" value="" style="endArrow=classic;html=1;rounded=0;fontSize=12;startSize=8;endSize=8;curved=1;exitX=1;exitY=1;exitDx=0;exitDy=0;entryX=0.108;entryY=0.283;entryDx=0;entryDy=0;entryPerimeter=0;" edge="1" parent="1" source="ff3Yo2wp49N8QEHePrqi-10" target="ff3Yo2wp49N8QEHePrqi-8">
          <mxGeometry width="50" height="50" relative="1" as="geometry">
            <mxPoint x="12" y="243" as="sourcePoint" />
            <mxPoint x="62" y="193" as="targetPoint" />
          </mxGeometry>
        </mxCell>
        <mxCell id="ff3Yo2wp49N8QEHePrqi-17" value="" style="endArrow=classic;html=1;rounded=0;fontSize=12;startSize=8;endSize=8;curved=1;exitX=1;exitY=0.5;exitDx=0;exitDy=0;entryX=0;entryY=0.5;entryDx=0;entryDy=0;" edge="1" parent="1" source="ff3Yo2wp49N8QEHePrqi-8" target="ff3Yo2wp49N8QEHePrqi-6">
          <mxGeometry width="50" height="50" relative="1" as="geometry">
            <mxPoint x="12" y="243" as="sourcePoint" />
            <mxPoint x="62" y="193" as="targetPoint" />
          </mxGeometry>
        </mxCell>
        <mxCell id="ff3Yo2wp49N8QEHePrqi-18" value="" style="endArrow=classic;html=1;rounded=0;fontSize=12;startSize=8;endSize=8;curved=1;exitX=1;exitY=0.5;exitDx=0;exitDy=0;entryX=0;entryY=0.5;entryDx=0;entryDy=0;" edge="1" parent="1" source="ff3Yo2wp49N8QEHePrqi-6" target="ff3Yo2wp49N8QEHePrqi-4">
          <mxGeometry width="50" height="50" relative="1" as="geometry">
            <mxPoint x="12" y="243" as="sourcePoint" />
            <mxPoint x="62" y="193" as="targetPoint" />
          </mxGeometry>
        </mxCell>
        <mxCell id="ff3Yo2wp49N8QEHePrqi-19" value="" style="endArrow=classic;html=1;rounded=0;fontSize=12;startSize=8;endSize=8;curved=1;exitX=1;exitY=0.5;exitDx=0;exitDy=0;entryX=0;entryY=0.5;entryDx=0;entryDy=0;" edge="1" parent="1" source="ff3Yo2wp49N8QEHePrqi-9" target="ff3Yo2wp49N8QEHePrqi-7">
          <mxGeometry width="50" height="50" relative="1" as="geometry">
            <mxPoint x="12" y="243" as="sourcePoint" />
            <mxPoint x="62" y="193" as="targetPoint" />
          </mxGeometry>
        </mxCell>
        <mxCell id="ff3Yo2wp49N8QEHePrqi-20" value="" style="endArrow=classic;html=1;rounded=0;fontSize=12;startSize=8;endSize=8;curved=1;exitX=1;exitY=0.5;exitDx=0;exitDy=0;entryX=0;entryY=0.5;entryDx=0;entryDy=0;" edge="1" parent="1" source="ff3Yo2wp49N8QEHePrqi-7" target="ff3Yo2wp49N8QEHePrqi-5">
          <mxGeometry width="50" height="50" relative="1" as="geometry">
            <mxPoint x="12" y="243" as="sourcePoint" />
            <mxPoint x="62" y="193" as="targetPoint" />
          </mxGeometry>
        </mxCell>
        <mxCell id="ff3Yo2wp49N8QEHePrqi-21" value="" style="endArrow=classic;html=1;rounded=0;fontSize=12;startSize=8;endSize=8;curved=1;exitX=1;exitY=0;exitDx=0;exitDy=0;entryX=0;entryY=1;entryDx=0;entryDy=0;" edge="1" parent="1" source="ff3Yo2wp49N8QEHePrqi-4" target="ff3Yo2wp49N8QEHePrqi-3">
          <mxGeometry width="50" height="50" relative="1" as="geometry">
            <mxPoint x="12" y="243" as="sourcePoint" />
            <mxPoint x="62" y="193" as="targetPoint" />
          </mxGeometry>
        </mxCell>
        <mxCell id="ff3Yo2wp49N8QEHePrqi-22" value="" style="endArrow=classic;html=1;rounded=0;fontSize=12;startSize=8;endSize=8;curved=1;exitX=0.5;exitY=0;exitDx=0;exitDy=0;entryX=0.5;entryY=1;entryDx=0;entryDy=0;" edge="1" parent="1" source="ff3Yo2wp49N8QEHePrqi-1" target="ff3Yo2wp49N8QEHePrqi-3">
          <mxGeometry width="50" height="50" relative="1" as="geometry">
            <mxPoint x="12" y="243" as="sourcePoint" />
            <mxPoint x="62" y="193" as="targetPoint" />
          </mxGeometry>
        </mxCell>
        <mxCell id="ff3Yo2wp49N8QEHePrqi-23" value="" style="endArrow=classic;html=1;rounded=0;fontSize=12;startSize=8;endSize=8;curved=1;exitX=0.5;exitY=1;exitDx=0;exitDy=0;entryX=0.5;entryY=0;entryDx=0;entryDy=0;" edge="1" parent="1" source="ff3Yo2wp49N8QEHePrqi-7" target="ff3Yo2wp49N8QEHePrqi-6">
          <mxGeometry width="50" height="50" relative="1" as="geometry">
            <mxPoint x="12" y="243" as="sourcePoint" />
            <mxPoint x="62" y="193" as="targetPoint" />
          </mxGeometry>
        </mxCell>
        <mxCell id="ff3Yo2wp49N8QEHePrqi-24" value="" style="endArrow=classic;html=1;rounded=0;fontSize=12;startSize=8;endSize=8;curved=1;exitX=1;exitY=1;exitDx=0;exitDy=0;entryX=0;entryY=0;entryDx=0;entryDy=0;" edge="1" parent="1" source="ff3Yo2wp49N8QEHePrqi-9" target="ff3Yo2wp49N8QEHePrqi-6">
          <mxGeometry width="50" height="50" relative="1" as="geometry">
            <mxPoint x="12" y="243" as="sourcePoint" />
            <mxPoint x="62" y="193" as="targetPoint" />
          </mxGeometry>
        </mxCell>
        <mxCell id="ff3Yo2wp49N8QEHePrqi-25" value="" style="endArrow=classic;html=1;rounded=0;fontSize=12;startSize=8;endSize=8;curved=1;exitX=0.875;exitY=0.3;exitDx=0;exitDy=0;exitPerimeter=0;entryX=0;entryY=1;entryDx=0;entryDy=0;" edge="1" parent="1" source="ff3Yo2wp49N8QEHePrqi-6" target="ff3Yo2wp49N8QEHePrqi-5">
          <mxGeometry width="50" height="50" relative="1" as="geometry">
            <mxPoint x="12" y="243" as="sourcePoint" />
            <mxPoint x="62" y="193" as="targetPoint" />
          </mxGeometry>
        </mxCell>
        <mxCell id="ff3Yo2wp49N8QEHePrqi-26" value="" style="endArrow=classic;html=1;rounded=0;fontSize=12;startSize=8;endSize=8;curved=1;exitX=1;exitY=1;exitDx=0;exitDy=0;entryX=0;entryY=0;entryDx=0;entryDy=0;" edge="1" parent="1" source="ff3Yo2wp49N8QEHePrqi-7" target="ff3Yo2wp49N8QEHePrqi-1">
          <mxGeometry width="50" height="50" relative="1" as="geometry">
            <mxPoint x="12" y="243" as="sourcePoint" />
            <mxPoint x="62" y="193" as="targetPoint" />
          </mxGeometry>
        </mxCell>
        <mxCell id="ff3Yo2wp49N8QEHePrqi-27" value="" style="endArrow=classic;html=1;rounded=0;fontSize=12;startSize=8;endSize=8;curved=1;exitX=1;exitY=0;exitDx=0;exitDy=0;entryX=0;entryY=1;entryDx=0;entryDy=0;" edge="1" parent="1" source="ff3Yo2wp49N8QEHePrqi-8" target="ff3Yo2wp49N8QEHePrqi-7">
          <mxGeometry width="50" height="50" relative="1" as="geometry">
            <mxPoint x="12" y="243" as="sourcePoint" />
            <mxPoint x="62" y="193" as="targetPoint" />
          </mxGeometry>
        </mxCell>
        <mxCell id="ff3Yo2wp49N8QEHePrqi-28" value="" style="curved=1;endArrow=classic;html=1;rounded=0;fontSize=12;startSize=8;endSize=8;exitX=0;exitY=1;exitDx=0;exitDy=0;entryX=0.5;entryY=1;entryDx=0;entryDy=0;" edge="1" parent="1" source="ff3Yo2wp49N8QEHePrqi-6" target="ff3Yo2wp49N8QEHePrqi-10">
          <mxGeometry width="50" height="50" relative="1" as="geometry">
            <mxPoint x="12" y="243" as="sourcePoint" />
            <mxPoint x="62" y="193" as="targetPoint" />
            <Array as="points">
              <mxPoint x="-271" y="548" />
            </Array>
          </mxGeometry>
        </mxCell>
        <mxCell id="ff3Yo2wp49N8QEHePrqi-29" value="" style="curved=1;endArrow=classic;html=1;rounded=0;fontSize=12;startSize=8;endSize=8;exitX=1;exitY=1;exitDx=0;exitDy=0;entryX=0;entryY=1;entryDx=0;entryDy=0;" edge="1" parent="1" source="ff3Yo2wp49N8QEHePrqi-6" target="ff3Yo2wp49N8QEHePrqi-1">
          <mxGeometry width="50" height="50" relative="1" as="geometry">
            <mxPoint x="12" y="243" as="sourcePoint" />
            <mxPoint x="62" y="193" as="targetPoint" />
            <Array as="points">
              <mxPoint x="130" y="458" />
              <mxPoint x="385" y="462" />
            </Array>
          </mxGeometry>
        </mxCell>
      </root>
    </mxGraphModel>
  </diagram>
</mxfile>
